<?xml version="1.0" encoding="utf-8"?>
<!-- Generator: Adobe Illustrator 16.0.0, SVG Export Plug-In . SVG Version: 6.00 Build 0)  -->
<!DOCTYPE svg PUBLIC "-//W3C//DTD SVG 1.1//EN" "http://www.w3.org/Graphics/SVG/1.1/DTD/svg11.dtd">
<svg version="1.1" id="Layer_1" xmlns="http://www.w3.org/2000/svg" xmlns:xlink="http://www.w3.org/1999/xlink" x="0px" y="0px"
	 width="612px" height="512px" viewBox="0 0 612 512" enable-background="new 0 0 612 512" xml:space="preserve">
<path fill="#F7FCFE" d="M425.85,268.8c25.601-28.8,40-65.6,40-107.2c0-89.6-72-161.6-161.6-161.6c-89.6,0-161.6,72-161.6,161.6
	c0,41.6,16,78.4,40,107.2C102.65,310.4,48.25,392,48.25,486.4c0,8,0,17.6,1.6,25.6h35.2c-1.6-8-1.6-17.6-1.6-25.6
	c0-84.801,52.8-158.4,128-193.601c27.2,19.2,59.2,30.4,94.399,30.4c35.2,0,67.2-11.2,94.4-30.4c75.2,33.601,128,107.2,128,193.601
	c0,8,0,17.6-1.6,25.6h35.199c1.601-8,1.601-17.6,1.601-25.6C560.25,392,505.85,310.4,425.85,268.8z M304.25,289.6
	c-19.2,0-35.2-3.199-51.2-11.199c-14.4-6.4-25.6-14.4-36.8-24c-25.6-24-40-56-40-92.8c0-70.4,57.6-128,128-128
	c70.4,0,128,57.6,128,128c0,36.8-14.4,68.8-40,92.8c-11.2,9.6-22.4,19.2-36.8,24C339.45,286.4,323.45,289.6,304.25,289.6z"/>
</svg>
